# xmcd
#
# Track frame offsets:
#	182
#	11052
#	24162
#	37235
#	50730
#	63415
#	75385
#	87360
#	103487
#	114110
#	124635
#	136605
#	149805
#	164232
#
# Disc length: 2386
#
# Revision: 4
# Processed by: cddbd v1.5.1PL0 Copyright (c) Steve Scherf et al.
# Submitted via: audiograbber 1.81.03
# Normalized: r3:DSETVAR1
#
DISCID=c309500e
DTITLE=Various Artist - This Is Soul Vol. 2 CD2
DYEAR=1900
DGENRE=Blues
TTITLE0=Ben E King - I Who Have Nothing
TTITLE1=Martha Reeves - Its The Same Old Song
TTITLE2=Drifters - On Broadway
TTITLE3=Ben E King - Spanish Harlem
TTITLE4=Percy Sledge - Behind Closed Doors
TTITLE5=Martha Reeves - Dancin' In The Street
TTITLE6=Jerry Butler - Only The Strong Survive
TTITLE7=Harold Melvin - The Love I Lost
TTITLE8=Martha Reeves - In The Midnight Hour
TTITLE9=George Mcrae - Its Been So Long
TTITLE10=The Tymes - You Little Trustmaker
TTITLE11=Brook Benton - Baby You've Got What It Takes
TTITLE12=Martha Reeves - Get Ready
TTITLE13=Harold Melvin - Sastisfaction Guaranteed
EXTD=
EXTT0=
EXTT1=
EXTT2=
EXTT3=
EXTT4=
EXTT5=
EXTT6=
EXTT7=
EXTT8=
EXTT9=
EXTT10=
EXTT11=
EXTT12=
EXTT13=
PLAYORDER=
